<?xml version="1.0" encoding="utf-8"?>
<!-- Generator: Adobe Illustrator 16.0.0, SVG Export Plug-In . SVG Version: 6.00 Build 0)  -->
<!DOCTYPE svg PUBLIC "-//W3C//DTD SVG 1.1//EN" "http://www.w3.org/Graphics/SVG/1.1/DTD/svg11.dtd">
<svg version="1.1" id="Layer_1" xmlns="http://www.w3.org/2000/svg" xmlns:xlink="http://www.w3.org/1999/xlink" x="0px" y="0px"
	 width="378.333px" height="88.709px" viewBox="0 0 378.333 88.709" enable-background="new 0 0 378.333 88.709"
	 xml:space="preserve">
<g>
	<linearGradient id="SVGID_1_" gradientUnits="userSpaceOnUse" x1="125.0552" y1="85.7778" x2="127.8615" y2="40.8761">
		<stop  offset="0" style="stop-color:#1E76BC"/>
		<stop  offset="1" style="stop-color:#1E76BC;stop-opacity:0"/>
	</linearGradient>
	<circle fill="url(#SVGID_1_)" cx="126.616" cy="60.79" r="20.561"/>
	<linearGradient id="SVGID_2_" gradientUnits="userSpaceOnUse" x1="182.5054" y1="81.728" x2="182.5054" y2="41.0369">
		<stop  offset="0" style="stop-color:#8EC044"/>
		<stop  offset="1" style="stop-color:#8EC044;stop-opacity:0"/>
	</linearGradient>
	<path fill="url(#SVGID_2_)" d="M203.063,60.79c0,11.355-9.207,20.559-20.554,20.559c-11.354,0-20.562-9.203-20.562-20.559
		s9.208-20.561,20.562-20.561C193.856,40.229,203.063,49.434,203.063,60.79z"/>
	<linearGradient id="SVGID_3_" gradientUnits="userSpaceOnUse" x1="292.5288" y1="83.0171" x2="293.932" y2="40.922">
		<stop  offset="0" style="stop-color:#F59E27"/>
		<stop  offset="1" style="stop-color:#F59E27;stop-opacity:0"/>
	</linearGradient>
	<circle fill="url(#SVGID_3_)" cx="293.269" cy="60.79" r="20.562"/>
	<linearGradient id="SVGID_4_" gradientUnits="userSpaceOnUse" x1="237.0181" y1="82.9048" x2="238.4212" y2="39.4072">
		<stop  offset="0" style="stop-color:#FBEA26"/>
		<stop  offset="1" style="stop-color:#FBEA26;stop-opacity:0"/>
	</linearGradient>
	<circle fill="url(#SVGID_4_)" cx="237.727" cy="60.948" r="20.561"/>
	<linearGradient id="SVGID_5_" gradientUnits="userSpaceOnUse" x1="347.0229" y1="85.8823" x2="349.8292" y2="39.579">
		<stop  offset="0" style="stop-color:#E52529"/>
		<stop  offset="1" style="stop-color:#E52529;stop-opacity:0"/>
	</linearGradient>
	<circle fill="url(#SVGID_5_)" cx="348.543" cy="60.79" r="20.561"/>
	<linearGradient id="SVGID_6_" gradientUnits="userSpaceOnUse" x1="125.7197" y1="32.1655" x2="128.5262" y2="119.1666">
		<stop  offset="0" style="stop-color:#FFFFFF"/>
		<stop  offset="1" style="stop-color:#FFFFFF;stop-opacity:0"/>
	</linearGradient>
	<path fill="url(#SVGID_6_)" d="M126.65,88.709c-15.267,0-27.687-12.422-27.687-27.689s12.42-27.688,27.687-27.688
		s27.687,12.42,27.687,27.688S141.917,88.709,126.65,88.709L126.65,88.709z M126.65,40.739c-11.183,0-20.281,9.098-20.281,20.281
		c0,11.186,9.098,20.283,20.281,20.283s20.282-9.098,20.282-20.283C146.932,49.836,137.833,40.739,126.65,40.739L126.65,40.739z"/>
	<linearGradient id="SVGID_7_" gradientUnits="userSpaceOnUse" x1="181.165" y1="29.2422" x2="183.9715" y2="116.2422">
		<stop  offset="0" style="stop-color:#FFFFFF"/>
		<stop  offset="1" style="stop-color:#FFFFFF;stop-opacity:0"/>
	</linearGradient>
	<path fill="url(#SVGID_7_)" d="M182.191,88.709c-15.266,0-27.686-12.422-27.686-27.689s12.42-27.688,27.686-27.688
		c15.26,0,27.682,12.42,27.682,27.688S197.452,88.709,182.191,88.709L182.191,88.709z M182.191,40.739
		c-11.183,0-20.281,9.098-20.281,20.281c0,11.186,9.099,20.283,20.281,20.283c11.176,0,20.276-9.098,20.276-20.283
		C202.467,49.836,193.368,40.739,182.191,40.739L182.191,40.739z"/>
	<linearGradient id="SVGID_8_" gradientUnits="userSpaceOnUse" x1="347.688" y1="26.1797" x2="350.4944" y2="113.1797">
		<stop  offset="0" style="stop-color:#FFFFFF"/>
		<stop  offset="1" style="stop-color:#FFFFFF;stop-opacity:0"/>
	</linearGradient>
	<path fill="url(#SVGID_8_)" d="M348.813,88.709c-15.268,0-27.688-12.422-27.688-27.689s12.42-27.688,27.688-27.688
		s27.686,12.42,27.686,27.688S364.081,88.709,348.813,88.709L348.813,88.709z M348.813,40.739c-11.184,0-20.279,9.098-20.279,20.281
		c0,11.186,9.096,20.283,20.279,20.283c11.182,0,20.281-9.098,20.281-20.283C369.094,49.836,359.995,40.739,348.813,40.739
		L348.813,40.739z"/>
	<linearGradient id="SVGID_9_" gradientUnits="userSpaceOnUse" x1="292.1304" y1="25.6968" x2="294.9368" y2="112.6968">
		<stop  offset="0" style="stop-color:#FFFFFF"/>
		<stop  offset="1" style="stop-color:#FFFFFF;stop-opacity:0"/>
	</linearGradient>
	<path fill="url(#SVGID_9_)" d="M293.27,88.709c-15.268,0-27.688-12.422-27.688-27.689s12.42-27.688,27.688-27.688
		s27.688,12.42,27.688,27.688S308.538,88.709,293.27,88.709L293.27,88.709z M293.27,40.739c-11.184,0-20.281,9.098-20.281,20.281
		c0,11.186,9.098,20.283,20.281,20.283c11.186,0,20.283-9.098,20.283-20.283C313.553,49.836,304.456,40.739,293.27,40.739
		L293.27,40.739z"/>
	<linearGradient id="SVGID_10_" gradientUnits="userSpaceOnUse" x1="237.6226" y1="27.4902" x2="240.4292" y2="114.4953">
		<stop  offset="0" style="stop-color:#FFFFFF"/>
		<stop  offset="1" style="stop-color:#FFFFFF;stop-opacity:0"/>
	</linearGradient>
	<path fill="url(#SVGID_10_)" d="M258.178,0v42.377c-5.068-5.553-12.357-9.045-20.451-9.045c-15.268,0-27.688,12.42-27.688,27.688
		s12.42,27.689,27.688,27.689c15.266,0,27.689-12.422,27.689-27.689V0H258.178z M237.727,81.303
		c-11.184,0-20.281-9.098-20.281-20.283c0-11.184,9.098-20.281,20.281-20.281c11.186,0,20.281,9.098,20.281,20.281
		C258.008,72.206,248.913,81.303,237.727,81.303z"/>
	<linearGradient id="SVGID_11_" gradientUnits="userSpaceOnUse" x1="47.4375" y1="33.7036" x2="50.2439" y2="120.7018">
		<stop  offset="0" style="stop-color:#FFFFFF"/>
		<stop  offset="1" style="stop-color:#FFFFFF;stop-opacity:0"/>
	</linearGradient>
	<path fill="url(#SVGID_11_)" d="M68.487,33.372c-7.721,0-14.706,3.184-19.732,8.299c-5.027-5.115-12.012-8.299-19.733-8.299
		c-14.973,0-27.177,11.955-27.643,26.814H1.342v0.736c0,0.047-0.007,0.09-0.007,0.135h0.007v27.615h7.437V60.299
		c0.403-10.83,9.316-19.523,20.243-19.523c6.067,0,11.506,2.691,15.226,6.928c1.481,1.688,2.659,3.633,3.519,5.74h1.976
		c0.86-2.107,2.038-4.053,3.519-5.74c3.72-4.236,9.159-6.928,15.226-6.928c11.183,0,20.282,9.1,20.282,20.281v27.615h7.405V61.057
		C96.173,45.792,83.753,33.372,68.487,33.372z"/>
</g>
</svg>
