<?xml version="1.0" encoding="utf-8"?>
<!-- Generator: Adobe Illustrator 16.0.0, SVG Export Plug-In . SVG Version: 6.00 Build 0)  -->
<!DOCTYPE svg PUBLIC "-//W3C//DTD SVG 1.1//EN" "http://www.w3.org/Graphics/SVG/1.1/DTD/svg11.dtd">
<svg version="1.1" id="Layer_1" xmlns="http://www.w3.org/2000/svg" xmlns:xlink="http://www.w3.org/1999/xlink" x="0px" y="0px"
	 width="370.152px" height="240.934px" viewBox="0 0 370.152 240.934" enable-background="new 0 0 370.152 240.934"
	 xml:space="preserve">
<g opacity="0.7">
	<path fill="#FFFFFF" d="M8.459,231.623v4.268h4.655v1.552H8.459v3.492H6.907v-10.863h7.759v1.552H8.459z"/>
	<path fill="#FFFFFF" d="M35.003,240.934c-2.576,0-4.655-2.08-4.655-4.655v-6.208h1.552v6.208c0,1.722,1.381,3.104,3.104,3.104
		c1.707,0,3.104-1.381,3.104-3.104v-6.208h1.552v6.208C39.659,238.854,37.579,240.934,35.003,240.934z"/>
	<path fill="#FFFFFF" d="M63.053,230.071l-5.137,9.311h5.137v1.552h-7.759l5.137-9.311h-4.904v-1.552H63.053z"/>
	<path fill="#FFFFFF" d="M85.779,230.071l-5.137,9.311h5.137v1.552H78.02l5.137-9.311h-4.904v-1.552H85.779z"/>
	<path fill="#FFFFFF" d="M109.995,230.071l-4.376,6.968v3.895h-1.552v-3.895l-4.36-6.968h1.831l3.306,5.276l3.321-5.276H109.995z"/>
	<path fill="#FFFFFF" d="M140.718,240.515l6.13-10.801l1.35,0.776l-6.13,10.801L140.718,240.515z"/>
	<path fill="#FFFFFF" d="M190.249,237.831c0,1.722-1.396,3.104-3.104,3.104h-6.208v-10.863h5.432c1.707,0,3.104,1.396,3.104,3.104
		c0,0.761-0.279,1.459-0.729,2.002C189.644,235.72,190.249,236.698,190.249,237.831z M182.49,231.623v3.104h3.879
		c0.854,0,1.552-0.698,1.552-1.552s-0.698-1.552-1.552-1.552H182.49z M187.146,239.382c0.854,0,1.552-0.698,1.552-1.552
		s-0.698-1.552-1.552-1.552h-4.655v3.104H187.146z"/>
	<path fill="#FFFFFF" d="M210.12,240.934c-2.994,0-5.431-2.437-5.431-5.431c0-2.995,2.437-5.432,5.431-5.432
		c2.995,0,5.432,2.437,5.432,5.432C215.552,238.498,213.115,240.934,210.12,240.934z M206.241,235.503
		c0,2.141,1.737,3.879,3.879,3.879s3.88-1.738,3.88-3.879c0-2.142-1.738-3.88-3.88-3.88S206.241,233.361,206.241,235.503z"/>
	<path fill="#FFFFFF" d="M235.268,240.934c-2.576,0-4.655-2.08-4.655-4.655v-6.208h1.552v6.208c0,1.722,1.381,3.104,3.104,3.104
		c1.707,0,3.104-1.381,3.104-3.104v-6.208h1.552v6.208C239.923,238.854,237.844,240.934,235.268,240.934z"/>
	<path fill="#FFFFFF" d="M265.847,230.071v10.863h-0.093l-7.666-7.325v7.325h-1.552v-10.863h0.077l7.682,7.325v-7.325H265.847z"/>
	<path fill="#FFFFFF" d="M282.786,229.684l-0.016,0.015v-0.015H282.786z M282.771,240.934v-10.863h3.879
		c2.995,0,5.432,2.437,5.432,5.432c0,2.995-2.437,5.431-5.432,5.431H282.771z M286.649,239.382c2.142,0,3.88-1.738,3.88-3.879
		c0-2.142-1.738-3.88-3.88-3.88h-2.327v7.759H286.649z"/>
	<path fill="#FFFFFF" d="M314.358,238.994h-6.456l-1.056,1.94h-1.769l6.052-11.08l6.067,11.08h-1.769L314.358,238.994z
		 M313.52,237.442l-2.39-4.36l-2.374,4.36H313.52z"/>
	<path fill="#FFFFFF" d="M340.545,240.934h-1.862l-2.032-3.104c-0.031,0-0.062,0-0.094,0h-2.327v3.104h-1.552v-10.863h3.879
		c2.142,0,3.88,1.738,3.88,3.879c0,1.537-0.885,2.855-2.188,3.492L340.545,240.934z M334.229,236.279h2.327
		c1.288,0,2.328-1.04,2.328-2.328c0-1.288-1.04-2.328-2.328-2.328h-2.327V236.279z"/>
	<path fill="#FFFFFF" d="M365.057,230.071l-4.376,6.968v3.895h-1.552v-3.895l-4.36-6.968h1.831l3.306,5.276l3.32-5.276H365.057z"/>
</g>
<polygon opacity="0.5" fill="#053247" points="188.564,132.827 195.547,144.92 181.588,144.92 181.582,144.92 181.582,144.915 "/>
<polygon opacity="0.5" fill="#053247" points="195.547,144.92 188.57,157.016 188.564,157.016 181.588,144.92 "/>
<polygon opacity="0.5" fill="#053247" points="181.588,144.92 188.564,157.016 174.6,157.016 181.582,144.92 "/>
<polygon opacity="0.5" fill="#053247" points="188.564,157.016 181.582,169.112 174.6,157.016 "/>
<polygon opacity="0.5" fill="#053247" points="188.564,132.827 181.582,144.915 174.605,132.827 "/>
<polygon opacity="0.5" fill="#053247" points="181.582,144.915 181.582,144.92 167.615,144.92 174.6,132.827 174.605,132.827 "/>
<polygon opacity="0.5" fill="#053247" points="181.582,144.92 174.6,157.016 167.615,144.92 "/>
<polygon opacity="0.5" fill="#053247" points="174.6,132.827 167.615,144.92 160.633,132.827 "/>
<polygon opacity="0.7" fill="#053247" points="167.615,120.725 160.633,132.827 153.645,120.725 "/>
<polygon opacity="0.7" fill="#053247" points="160.633,132.827 167.615,144.92 153.645,144.92 160.627,132.827 "/>
<polygon opacity="0.5" fill="#053247" points="160.633,108.624 160.633,108.629 160.627,108.629 146.662,108.629 153.645,96.536 
	153.65,96.536 "/>
<polygon opacity="0.7" fill="#053247" points="153.645,120.725 160.633,132.827 160.627,132.827 146.662,132.827 "/>
<polygon opacity="0.7" fill="#053247" points="160.681,108.626 167.669,120.728 167.665,120.728 153.698,120.728 "/>
<polygon opacity="0.7" fill="#053247" points="160.627,132.827 153.645,144.92 146.662,132.827 "/>
<polygon opacity="0.5" fill="#053247" points="160.627,157.016 153.645,169.112 146.662,157.016 "/>
<polygon opacity="0.5" fill="#053247" points="160.627,108.629 153.645,120.725 146.662,108.629 "/>
<polygon opacity="0.5" fill="#053247" points="153.645,144.92 160.627,157.016 146.662,157.016 "/>
<polygon opacity="0.5" fill="#053247" points="146.662,157.016 153.645,169.112 139.68,169.112 "/>
<polygon opacity="0.7" fill="#053247" points="153.645,144.92 146.662,157.016 139.68,144.92 "/>
<polygon opacity="0.5" fill="#053247" points="146.662,108.629 153.645,120.725 139.68,120.725 "/>
<polygon opacity="0.5" fill="#053247" points="153.645,120.725 146.662,132.827 139.68,120.731 139.68,120.725 "/>
<polygon opacity="0.7" fill="#053247" points="146.662,132.827 153.645,144.92 139.68,144.92 139.68,144.915 "/>
<polygon opacity="0.5" fill="#053247" points="139.68,144.92 146.662,157.016 132.689,157.016 "/>
<polygon opacity="0.5" fill="#053247" points="146.662,157.016 139.68,169.112 139.674,169.112 132.689,157.016 "/>
<polygon opacity="0.7" fill="#053247" points="139.68,96.536 146.662,108.629 132.697,108.629 "/>
<polygon opacity="0.5" fill="#053247" points="146.662,108.629 139.68,120.725 139.674,120.725 132.697,108.635 132.697,108.629 "/>
<polygon opacity="0.7" fill="#053247" points="139.68,120.731 146.662,132.827 132.697,132.827 132.697,132.821 "/>
<polygon opacity="0.7" fill="#053247" points="146.662,132.827 139.68,144.915 132.697,132.827 "/>
<polygon opacity="0.7" fill="#053247" points="139.68,96.536 132.697,108.629 132.689,108.629 125.707,96.536 "/>
<polygon opacity="0.7" fill="#053247" points="132.697,84.44 139.68,96.536 125.707,96.536 132.689,84.44 "/>
<polygon opacity="0.5" fill="#053247" points="139.68,144.915 139.68,144.92 125.713,144.92 132.697,132.827 "/>
<polygon opacity="0.7" fill="#053247" points="139.68,120.725 139.68,120.731 132.697,132.821 125.713,120.731 125.713,120.725 
	139.674,120.725 "/>
<polygon opacity="0.5" fill="#053247" points="139.68,144.92 132.689,157.016 125.707,144.92 125.713,144.92 "/>
<polygon opacity="0.7" fill="#053247" points="132.697,108.635 139.674,120.725 125.713,120.725 "/>
<polygon opacity="0.7" fill="#053247" points="132.697,132.821 132.697,132.827 118.73,132.827 125.713,120.731 "/>
<polygon opacity="0.7" fill="#053247" points="132.697,108.629 132.697,108.635 125.713,120.725 118.73,108.629 132.689,108.629 "/>
<polygon opacity="0.7" fill="#053247" points="132.697,84.434 132.689,84.44 118.725,84.44 125.713,72.344 "/>
<polygon opacity="0.7" fill="#053247" points="132.697,132.827 125.713,144.92 125.707,144.92 118.725,132.833 118.725,132.827 
	118.73,132.827 "/>
<polygon opacity="0.7" fill="#053247" points="132.689,84.44 125.707,96.536 118.725,84.44 "/>
<polygon opacity="0.5" fill="#053247" points="125.707,96.536 132.689,108.629 118.73,108.629 118.725,108.629 118.725,108.624 "/>
<polygon opacity="0.5" fill="#053247" points="125.707,144.92 132.689,157.016 118.725,157.016 "/>
<polygon opacity="0.7" fill="#053247" points="125.713,120.725 125.713,120.731 118.73,132.827 118.725,132.827 111.742,120.731 
	111.742,120.725 "/>
<polygon opacity="0.7" fill="#053247" points="125.713,72.338 125.713,72.344 118.725,84.44 111.742,72.344 111.742,72.338 
	111.748,72.338 125.707,72.338 "/>
<polygon opacity="0.5" fill="#053247" points="125.713,120.725 111.742,120.725 118.725,108.629 118.73,108.629 "/>
<polygon opacity="0.7" fill="#053247" points="118.73,60.244 125.707,72.338 111.748,72.338 118.725,60.244 "/>
<polygon opacity="0.7" fill="#053247" points="118.725,84.44 125.707,96.536 111.742,96.536 "/>
<polygon opacity="0.5" fill="#053247" points="125.707,96.536 118.725,108.624 111.742,96.536 "/>
<polygon opacity="0.5" fill="#053247" points="118.725,132.833 125.707,144.92 111.742,144.92 "/>
<polygon opacity="0.8" fill="#053247" points="118.725,132.827 118.725,132.833 111.742,144.92 104.76,132.827 "/>
<polygon opacity="0.5" fill="#053247" points="118.725,108.624 118.725,108.629 104.76,108.629 111.742,96.536 "/>
<polygon opacity="0.5" fill="#053247" points="118.725,84.44 111.742,96.536 104.76,84.44 "/>
<polygon opacity="0.5" fill="#053247" points="111.742,72.344 118.725,84.44 104.76,84.44 "/>
<polygon opacity="0.5" fill="#053247" points="118.725,108.629 111.742,120.725 111.736,120.725 104.76,108.635 104.76,108.629 "/>
<polygon opacity="0.8" fill="#053247" points="111.742,120.731 118.725,132.827 104.76,132.827 104.76,132.821 "/>
<polygon opacity="0.5" fill="#053247" points="111.742,72.338 111.742,72.344 104.76,84.44 97.777,72.338 "/>
<polygon opacity="0.5" fill="#053247" points="104.76,84.44 111.742,96.536 97.777,96.536 "/>
<polygon opacity="0.5" fill="#053247" points="111.742,96.536 104.76,108.629 104.754,108.629 97.777,96.542 97.777,96.536 "/>
<polygon opacity="0.8" fill="#053247" points="104.76,132.827 111.742,144.92 97.777,144.92 97.777,144.915 104.754,132.827 "/>
<polygon opacity="0.5" fill="#053247" points="111.742,120.725 111.742,120.731 104.76,132.821 97.777,120.731 97.777,120.725 
	111.736,120.725 "/>
<polygon opacity="0.5" fill="#053247" points="111.742,72.338 97.777,72.338 104.754,60.244 "/>
<polygon opacity="0.4" fill="#053247" points="104.76,108.635 111.736,120.725 97.777,120.725 "/>
<polygon opacity="0.5" fill="#053247" points="97.777,72.338 104.76,84.44 90.787,84.44 97.771,72.338 "/>
<polygon opacity="0.7" fill="#053247" points="104.76,84.44 97.777,96.536 97.771,96.536 90.787,84.44 "/>
<polygon opacity="0.5" fill="#053247" points="97.777,144.92 104.76,157.016 90.787,157.016 97.771,144.92 "/>
<polygon opacity="0.7" fill="#053247" points="104.76,132.821 104.76,132.827 104.754,132.827 90.793,132.827 97.777,120.731 "/>
<polygon opacity="0.5" fill="#053247" points="104.76,108.635 97.777,120.725 97.771,120.725 90.793,108.635 90.793,108.629 
	104.754,108.629 "/>
<polygon opacity="0.5" fill="#053247" points="97.777,96.542 104.754,108.629 90.793,108.629 "/>
<polygon opacity="0.8" fill="#053247" points="104.754,132.827 97.777,144.915 90.793,132.827 "/>
<polygon opacity="0.7" fill="#053247" points="97.777,120.725 97.777,120.731 90.793,132.827 83.811,120.731 83.811,120.725 
	97.771,120.725 "/>
<polygon opacity="0.8" fill="#053247" points="97.777,96.542 90.793,108.629 90.787,108.629 83.805,96.536 97.771,96.536 "/>
<polygon opacity="0.5" fill="#053247" points="97.777,144.915 97.771,144.92 83.805,144.92 90.787,132.827 90.793,132.827 "/>
<polygon opacity="0.7" fill="#053247" points="90.787,84.44 97.771,96.536 83.805,96.536 "/>
<polygon opacity="0.7" fill="#053247" points="90.793,108.635 97.771,120.725 83.811,120.725 "/>
<polygon opacity="0.5" fill="#053247" points="97.771,144.92 90.787,157.016 83.805,144.92 "/>
<polygon opacity="0.7" fill="#053247" points="83.811,120.731 90.793,132.827 90.787,132.827 76.822,132.827 "/>
<polygon opacity="0.7" fill="#053247" points="90.793,108.635 83.811,120.725 83.805,120.725 76.822,108.629 90.787,108.629 "/>
<polygon opacity="0.7" fill="#053247" points="90.787,132.827 83.805,144.92 76.822,132.827 "/>
<polygon opacity="0.8" fill="#053247" points="83.805,96.536 90.787,108.629 76.822,108.629 76.822,108.624 "/>
<polygon opacity="0.7" fill="#053247" points="83.805,144.92 90.787,157.016 76.822,157.016 "/>
<polygon opacity="0.7" fill="#053247" points="90.787,157.016 83.805,169.112 76.822,157.016 "/>
<polygon opacity="0.5" fill="#053247" points="83.805,72.344 90.787,84.44 76.822,84.44 "/>
<polygon opacity="0.7" fill="#053247" points="90.787,84.44 83.805,96.536 76.822,84.44 "/>
<polygon opacity="0.7" fill="#053247" points="83.811,120.731 76.822,132.827 69.834,120.725 83.805,120.725 "/>
<polygon opacity="0.7" fill="#053247" points="83.805,193.308 76.828,205.404 76.822,205.404 69.84,193.308 "/>
<polygon opacity="0.5" fill="#053247" points="76.822,181.211 83.805,193.308 69.84,193.308 69.84,193.301 76.816,181.211 "/>
<polygon opacity="0.5" fill="#053247" points="83.805,144.92 76.822,157.016 69.84,144.92 "/>
<polygon opacity="0.7" fill="#053247" points="76.822,108.629 83.805,120.725 69.834,120.725 "/>
<polygon opacity="0.7" fill="#053247" points="76.822,132.827 83.805,144.92 69.84,144.92 "/>
<polygon opacity="0.5" fill="#053247" points="83.805,169.112 76.822,181.208 69.84,169.118 69.84,169.112 "/>
<polygon opacity="0.5" fill="#053247" points="76.822,157.016 83.805,169.112 69.84,169.112 "/>
<polygon opacity="0.8" fill="#053247" points="76.822,84.44 83.805,96.536 69.84,96.536 "/>
<polygon opacity="0.7" fill="#053247" points="83.805,96.536 76.822,108.624 69.84,96.536 "/>
<polygon opacity="0.7" fill="#053247" points="76.822,157.016 69.84,169.112 62.857,157.016 "/>
<polygon opacity="0.7" fill="#053247" points="69.834,120.725 76.822,132.827 62.857,132.827 62.852,132.827 62.852,132.821 "/>
<polygon opacity="0.7" fill="#053247" points="76.822,132.827 69.84,144.92 62.857,132.827 "/>
<polygon opacity="0.7" fill="#053247" points="69.84,72.344 76.822,84.44 62.857,84.44 "/>
<polygon opacity="0.7" fill="#053247" points="76.822,84.44 69.84,96.536 62.857,84.44 "/>
<polygon opacity="0.7" fill="#053247" points="69.84,144.92 76.822,157.016 62.857,157.016 "/>
<polygon opacity="0.5" fill="#053247" points="76.822,108.624 76.822,108.629 62.857,108.629 69.84,96.536 "/>
<polygon opacity="0.5" fill="#053247" points="76.822,108.629 69.834,120.725 62.857,108.629 "/>
<polygon opacity="0.5" fill="#053247" points="69.84,169.112 69.84,169.118 62.857,181.211 55.873,169.118 55.873,169.112 "/>
<polygon opacity="0.5" fill="#053247" points="69.84,144.92 62.857,157.016 55.873,144.92 "/>
<polygon opacity="0.7" fill="#053247" points="62.857,84.44 69.84,96.536 55.873,96.536 "/>
<polygon opacity="0.7" fill="#053247" points="69.84,96.536 62.857,108.629 62.852,108.629 55.873,96.536 "/>
<polygon opacity="0.7" fill="#053247" points="62.857,132.827 69.84,144.92 55.873,144.92 55.867,144.92 55.867,144.915 
	62.852,132.827 "/>
<polygon opacity="0.5" fill="#053247" points="69.84,169.112 55.873,169.112 62.857,157.016 "/>
<polygon opacity="0.7" fill="#053247" points="55.867,169.117 48.891,181.212 48.885,181.212 41.902,169.117 "/>
<polygon opacity="0.5" fill="#053247" points="48.884,157.016 55.867,169.112 41.902,169.112 41.902,169.106 48.878,157.016 "/>
<polygon opacity="0.5" fill="#053247" points="55.867,144.92 48.884,157.017 41.902,144.927 41.902,144.92 "/>
<polygon opacity="0.7" fill="#053247" points="69.834,120.725 62.852,132.821 55.867,120.731 55.867,120.725 55.873,120.725 "/>
<polygon opacity="0.5" fill="#053247" points="62.857,108.629 69.834,120.725 55.873,120.725 "/>
<polygon opacity="0.7" fill="#053247" points="62.857,108.629 55.873,120.725 55.867,120.725 48.885,108.629 62.852,108.629 "/>
<polygon opacity="0.7" fill="#053247" points="62.857,84.44 55.873,96.536 55.867,96.536 48.885,84.44 "/>
<polygon opacity="0.7" fill="#053247" points="55.873,96.536 62.852,108.629 48.885,108.629 55.867,96.536 "/>
<polygon opacity="0.7" fill="#053247" points="62.852,132.827 55.867,144.915 48.885,132.827 "/>
<polygon opacity="0.7" fill="#053247" points="55.867,96.536 48.885,108.629 41.902,96.536 "/>
<polygon opacity="0.7" fill="#053247" points="48.885,84.44 55.867,96.536 41.902,96.536 "/>
<polygon opacity="0.7" fill="#053247" points="48.885,108.629 55.867,120.725 41.902,120.725 "/>
<polygon opacity="0.7" fill="#053247" points="48.885,157.016 41.902,169.112 34.92,157.016 "/>
<polygon opacity="0.7" fill="#053247" points="41.902,169.112 27.938,169.112 34.92,157.016 "/>
<polygon opacity="0.2" fill="#053247" points="363.164,72.338 370.152,84.44 356.182,84.44 "/>
<polygon opacity="0.7" fill="#053247" points="363.17,48.148 370.146,60.244 356.186,60.244 363.164,48.148 "/>
<polygon opacity="0.8" fill="#053247" points="363.17,23.958 356.186,36.052 356.182,36.052 349.197,23.953 363.164,23.953 "/>
<polygon opacity="0.8" fill="#053247" points="363.164,169.112 363.164,169.118 356.182,181.211 349.197,169.112 "/>
<polygon opacity="0.7" fill="#053247" points="356.186,36.052 363.164,48.148 349.197,48.148 356.182,36.052 "/>
<polygon opacity="0.2" fill="#053247" points="363.164,48.148 356.186,60.244 356.182,60.244 349.197,48.148 "/>
<polygon opacity="0.2" fill="#053247" points="356.182,60.25 363.164,72.338 349.203,72.338 "/>
<polygon opacity="0.2" fill="#053247" points="363.164,72.338 356.182,84.44 349.197,72.344 349.203,72.338 "/>
<polygon opacity="0.8" fill="#053247" points="356.182,157.016 363.164,169.112 349.197,169.112 "/>
<polygon opacity="0.5" fill="#053247" points="356.182,36.052 349.197,48.148 342.215,36.052 "/>
<polygon opacity="0.7" fill="#053247" points="349.197,48.148 356.182,60.244 342.215,60.244 "/>
<polygon opacity="0.7" fill="#053247" points="349.197,72.344 356.182,84.44 342.215,84.44 "/>
<polygon opacity="0.5" fill="#053247" points="356.182,84.44 349.197,96.536 342.215,84.44 "/>
<polygon opacity="0.8" fill="#053247" points="356.182,157.016 349.197,169.112 342.215,157.016 "/>
<polygon opacity="0.7" fill="#053247" points="349.203,120.725 349.203,120.731 342.215,132.827 335.227,120.731 335.227,120.725 
	335.232,120.725 349.197,120.725 "/>
<polygon opacity="0.1" fill="#053247" points="349.197,23.953 342.215,36.046 335.232,23.958 335.232,23.953 "/>
<polygon opacity="0.8" fill="#053247" points="342.215,36.052 349.197,48.148 335.227,48.148 342.209,36.052 "/>
<polygon opacity="0.8" fill="#053247" points="349.197,48.148 342.215,60.244 342.209,60.244 335.227,48.148 "/>
<polygon opacity="0.5" fill="#053247" points="349.197,72.344 342.215,84.44 335.232,72.344 335.232,72.338 349.191,72.338 "/>
<polygon opacity="0.5" fill="#053247" points="342.215,84.44 349.197,96.536 335.232,96.536 "/>
<polygon opacity="0.5" fill="#053247" points="349.197,96.536 342.215,108.624 335.232,96.536 "/>
<polygon opacity="0.7" fill="#053247" points="342.215,132.833 349.197,144.92 335.232,144.92 "/>
<polygon opacity="0.8" fill="#053247" points="342.215,157.016 349.197,169.112 335.232,169.112 "/>
<polygon opacity="0.7" fill="#053247" points="342.215,60.25 349.191,72.338 335.232,72.338 "/>
<polygon opacity="0.7" fill="#053247" points="342.215,132.827 342.215,132.833 335.232,144.92 328.25,132.827 "/>
<polygon opacity="0.2" fill="#053247" points="335.232,23.958 342.215,36.046 342.215,36.052 342.209,36.052 328.244,36.052 "/>
<polygon opacity="0.7" fill="#053247" points="335.232,72.344 342.215,84.44 328.25,84.44 "/>
<polygon opacity="0.5" fill="#053247" points="342.215,84.44 335.232,96.536 328.25,84.44 "/>
<polygon opacity="0.7" fill="#053247" points="335.227,120.731 342.215,132.827 328.25,132.827 328.244,132.827 328.244,132.821 "/>
<polygon opacity="0.7" fill="#053247" points="335.232,144.928 342.215,157.016 328.25,157.016 "/>
<polygon opacity="0.8" fill="#053247" points="342.215,157.016 335.232,169.112 328.25,157.016 "/>
<polygon opacity="0.5" fill="#053247" points="342.209,36.052 335.227,48.148 328.244,36.052 "/>
<polygon opacity="0.8" fill="#053247" points="335.227,48.148 342.209,60.244 328.244,60.244 "/>
<polygon opacity="0.7" fill="#053247" points="335.232,144.92 335.232,144.928 328.25,157.016 321.268,144.92 "/>
<polygon opacity="0.8" fill="#053247" points="335.232,72.344 328.25,84.44 321.262,72.338 335.227,72.338 "/>
<polygon opacity="0.1" fill="#053247" points="328.25,84.44 335.232,96.536 321.268,96.536 "/>
<polygon opacity="0.7" fill="#053247" points="328.25,132.827 335.232,144.92 321.268,144.92 321.262,144.92 321.262,144.915 
	328.244,132.827 "/>
<polygon opacity="0.7" fill="#053247" points="328.25,157.016 335.232,169.112 321.268,169.112 "/>
<polygon opacity="0.7" fill="#053247" points="335.227,120.725 335.227,120.731 328.244,132.821 321.262,120.731 321.268,120.725 
	"/>
<polygon opacity="0.5" fill="#053247" points="328.244,36.052 335.227,48.148 321.262,48.148 "/>
<polygon opacity="0.8" fill="#053247" points="335.227,48.148 328.244,60.244 321.262,48.148 "/>
<polygon opacity="0.8" fill="#053247" points="328.244,60.244 335.227,72.338 321.262,72.338 "/>
<polygon opacity="0.7" fill="#053247" points="328.244,108.635 335.227,120.725 321.268,120.725 "/>
<polygon opacity="0.8" fill="#053247" points="321.262,72.338 328.25,84.44 314.277,84.44 "/>
<polygon opacity="0.4" fill="#053247" points="328.25,84.44 321.268,96.536 321.262,96.536 314.277,84.44 "/>
<polygon opacity="0.7" fill="#053247" points="328.244,132.821 328.244,132.827 314.283,132.827 314.277,132.827 321.262,120.731 
	"/>
<polygon opacity="0.5" fill="#053247" points="328.244,36.052 321.262,48.148 314.277,36.052 "/>
<polygon opacity="0.2" fill="#053247" points="321.262,48.148 328.244,60.244 314.277,60.244 "/>
<polygon opacity="0.2" fill="#053247" points="328.244,60.244 321.262,72.338 314.277,60.244 "/>
<polygon opacity="0.2" fill="#053247" points="321.262,96.542 328.244,108.629 314.283,108.629 "/>
<polygon opacity="0.7" fill="#053247" points="328.244,132.827 321.262,144.915 314.283,132.827 "/>
<polygon opacity="0.7" fill="#053247" points="321.262,144.915 321.262,144.92 307.295,144.92 314.277,132.827 314.283,132.827 "/>
<polygon opacity="0.1" fill="#053247" points="321.262,120.725 321.262,120.731 314.277,132.827 307.295,120.731 307.295,120.725 
	"/>
<polygon opacity="0.5" fill="#053247" points="321.262,23.953 321.262,23.958 314.277,36.052 307.295,23.953 "/>
<polygon opacity="0.5" fill="#053247" points="314.277,11.857 321.262,23.953 307.295,23.953 "/>
<polygon opacity="0.2" fill="#053247" points="314.277,36.052 321.262,48.148 307.295,48.148 "/>
<polygon opacity="0.1" fill="#053247" points="321.262,48.148 314.277,60.244 307.295,48.148 "/>
<polygon opacity="0.1" fill="#053247" points="314.277,60.244 321.262,72.338 307.295,72.338 "/>
<polygon opacity="0.2" fill="#053247" points="321.262,72.338 314.277,84.44 314.271,84.44 307.295,72.344 307.295,72.338 "/>
<polygon opacity="0.4" fill="#053247" points="314.277,84.44 321.262,96.536 307.295,96.536 314.271,84.44 "/>
<polygon opacity="0.1" fill="#053247" points="314.277,108.635 321.262,120.725 307.295,120.725 "/>
<polygon opacity="0.5" fill="#053247" points="314.277,108.629 314.277,108.635 307.295,120.725 300.312,108.629 "/>
<polygon opacity="0.2" fill="#053247" points="307.295,48.148 314.277,60.244 300.312,60.244 "/>
<polygon opacity="0.2" fill="#053247" points="314.277,60.244 307.295,72.338 307.289,72.338 300.312,60.25 300.312,60.244 "/>
<polygon opacity="0.5" fill="#053247" points="307.295,96.536 314.277,108.629 300.312,108.629 300.312,108.624 307.289,96.536 "/>
<polygon opacity="0.8" fill="#053247" points="307.295,72.344 314.271,84.44 300.312,84.44 "/>
<polygon opacity="0.4" fill="#053247" points="314.271,84.44 307.295,96.536 307.289,96.536 300.312,84.44 "/>
<polygon opacity="0.1" fill="#053247" points="307.295,120.725 307.295,120.731 300.312,132.827 300.307,132.827 293.324,120.731 
	293.324,120.725 "/>
<polygon opacity="0.1" fill="#053247" points="300.312,36.052 307.295,48.148 293.324,48.148 300.307,36.052 "/>
<polygon opacity="0.1" fill="#053247" points="307.295,48.148 300.312,60.244 300.307,60.244 293.324,48.148 "/>
<polygon opacity="0.8" fill="#053247" points="307.295,72.344 300.312,84.44 293.33,72.344 293.33,72.338 307.289,72.338 "/>
<polygon opacity="0.5" fill="#053247" points="300.312,108.629 307.295,120.725 293.324,120.725 300.307,108.629 "/>
<polygon opacity="0.8" fill="#053247" points="300.312,60.25 307.289,72.338 293.33,72.338 "/>
<polygon opacity="0.5" fill="#053247" points="300.312,84.44 307.289,96.536 293.33,96.536 "/>
<polygon opacity="0.8" fill="#053247" points="307.289,96.536 300.312,108.624 293.33,96.536 "/>
<polygon opacity="0.8" fill="#053247" points="300.312,108.624 300.312,108.629 300.307,108.629 286.342,108.629 293.33,96.536 "/>
<polygon opacity="0.8" fill="#053247" points="300.312,60.25 293.33,72.338 293.324,72.338 286.342,60.244 300.307,60.244 "/>
<polygon opacity="0.2" fill="#053247" points="293.33,72.344 300.312,84.44 286.346,84.44 "/>
<polygon opacity="0.8" fill="#053247" points="300.312,84.44 293.33,96.536 286.346,84.44 "/>
<polygon opacity="0.1" fill="#053247" points="293.324,48.148 300.307,60.244 286.342,60.244 "/>
<polygon opacity="0.8" fill="#053247" points="300.307,108.629 293.324,120.725 286.342,108.635 286.342,108.629 "/>
<polygon opacity="0.1" fill="#053247" points="293.33,72.344 286.346,84.44 286.342,84.44 279.359,72.338 293.324,72.338 "/>
<polygon opacity="0.4" fill="#053247" points="286.346,84.44 293.33,96.536 279.359,96.536 286.342,84.44 "/>
<polygon opacity="0.8" fill="#053247" points="293.33,96.536 286.342,108.629 286.336,108.629 279.359,96.542 279.359,96.536 "/>
<polygon opacity="0.8" fill="#053247" points="293.324,48.148 286.342,60.244 279.359,48.148 "/>
<polygon opacity="0.2" fill="#053247" points="286.342,60.244 293.324,72.338 279.359,72.338 "/>
<polygon opacity="0.1" fill="#053247" points="279.359,72.338 286.342,84.44 272.369,84.44 "/>
<polygon opacity="0.4" fill="#053247" points="286.342,84.44 279.359,96.536 279.354,96.536 272.369,84.44 "/>
<polygon opacity="0.4" fill="#053247" points="279.359,96.536 279.359,96.542 272.375,108.629 265.393,96.536 279.354,96.536 "/>
<polygon opacity="0.1" fill="#053247" points="272.375,60.244 279.359,72.338 265.393,72.338 "/>
<polygon opacity="0.1" fill="#053247" points="279.359,72.338 272.369,84.44 265.387,72.344 265.393,72.338 "/>
<polygon opacity="0.4" fill="#053247" points="272.369,84.44 279.354,96.536 265.393,96.536 265.387,96.536 265.387,96.53 "/>
<polygon opacity="0.1" fill="#053247" points="272.375,60.244 265.393,72.338 265.387,72.338 258.404,60.25 258.404,60.244 
	258.41,60.244 "/>
<polygon opacity="0.2" fill="#053247" points="265.387,72.344 272.369,84.44 258.41,84.44 "/>
<polygon opacity="0.1" fill="#053247" points="265.387,72.338 265.387,72.344 258.41,84.44 258.404,84.44 251.422,72.338 
	251.428,72.338 "/>
<polygon opacity="0.1" fill="#053247" points="258.404,60.25 265.387,72.338 251.428,72.338 "/>
<polygon opacity="0.1" fill="#053247" points="286.566,132.905 293.555,145.004 279.584,145.004 "/>
<polygon opacity="0.8" fill="#053247" points="286.572,84.523 279.59,96.619 279.584,96.619 272.602,84.517 286.566,84.517 "/>
<polygon opacity="0.7" fill="#053247" points="286.566,132.905 279.584,145.004 272.602,132.911 272.607,132.905 "/>
<polygon opacity="0.8" fill="#053247" points="272.602,84.517 279.584,96.619 265.619,96.619 265.619,96.611 "/>
<polygon opacity="0.5" fill="#053247" points="279.584,96.619 272.602,108.712 265.619,96.619 "/>
<polygon opacity="0.7" fill="#053247" points="272.602,132.911 279.584,145.004 265.619,145.004 "/>
<polygon opacity="0.5" fill="#053247" points="279.584,145.004 272.602,157.1 265.619,145.004 "/>
<polygon opacity="0.8" fill="#053247" points="265.619,96.619 272.602,108.712 258.629,108.712 265.611,96.619 "/>
<polygon opacity="0.8" fill="#053247" points="272.602,108.712 265.619,120.809 265.611,120.809 258.629,108.712 "/>
<polygon opacity="0.5" fill="#053247" points="272.602,132.911 265.619,145.004 258.635,132.911 258.635,132.905 272.596,132.905 
	"/>
<polygon opacity="0.5" fill="#053247" points="265.619,145.004 272.602,157.1 258.635,157.1 "/>
<polygon opacity="0.7" fill="#053247" points="265.619,120.815 272.596,132.905 258.635,132.905 "/>
<polygon opacity="0.7" fill="#053247" points="258.635,132.911 265.619,145.004 251.652,145.004 "/>
<polygon opacity="0.5" fill="#053247" points="265.619,145.004 258.635,157.1 251.652,145.004 "/>
<polygon opacity="0.5" fill="#053247" points="265.611,96.619 258.629,108.712 251.646,96.619 "/>
<polygon opacity="0.1" fill="#053247" points="258.635,84.517 258.635,84.523 251.646,96.619 244.664,84.523 244.664,84.517 
	244.67,84.517 258.629,84.517 "/>
<polygon opacity="0.5" fill="#053247" points="251.646,96.619 258.629,108.712 244.664,108.712 "/>
<polygon opacity="0.8" fill="#053247" points="258.629,108.712 251.646,120.809 244.664,108.712 "/>
<polygon opacity="0.5" fill="#053247" points="251.646,96.619 244.664,108.712 237.682,96.619 "/>
<polygon opacity="0.5" fill="#053247" points="244.664,84.517 244.664,84.523 237.682,96.619 230.697,84.517 "/>
<polygon opacity="0.2" fill="#053247" points="237.682,96.619 244.664,108.712 230.697,108.712 "/>
<polygon opacity="0.1" fill="#053247" points="244.664,108.712 237.682,120.809 230.697,108.712 "/>
<polygon opacity="0.4" fill="#053247" points="237.676,145.004 230.697,157.1 230.693,157.1 223.715,145.004 "/>
<polygon opacity="0.3" fill="#053247" points="223.715,96.619 230.697,108.712 216.727,108.712 223.709,96.619 "/>
<polygon opacity="0.3" fill="#053247" points="230.697,108.712 223.715,120.809 223.709,120.809 216.727,108.712 "/>
<polygon opacity="0.5" fill="#053247" points="223.715,145.004 230.693,157.1 216.732,157.1 "/>
<polygon opacity="0.4" fill="#053247" points="216.732,132.911 223.715,145.004 209.75,145.004 "/>
<polygon opacity="0.6" fill="#053247" points="223.715,145.004 216.732,157.1 209.75,145.004 "/>
<polygon opacity="0.3" fill="#053247" points="216.727,108.712 223.709,120.809 209.744,120.809 "/>
<polygon opacity="0.4" fill="#053247" points="216.732,132.911 209.75,145.004 209.744,145.004 202.762,132.905 216.727,132.905 "/>
<polygon opacity="0.4" fill="#053247" points="209.75,145.004 216.732,157.1 202.762,157.1 209.744,145.004 "/>
<polygon opacity="0.4" fill="#053247" points="202.762,132.905 209.744,145.004 195.771,145.004 "/>
<polygon opacity="0.4" fill="#053247" points="209.744,145.004 202.762,157.1 202.756,157.1 195.771,145.004 "/>
<polygon opacity="0.4" fill="#053247" points="195.771,145.004 202.756,157.1 188.795,157.1 188.789,157.1 188.789,157.094 "/>
<polygon opacity="0.3" fill="#053247" points="216.502,181.208 216.502,181.211 216.496,181.211 202.535,181.211 202.535,181.208 
	209.52,169.118 "/>
<polygon opacity="0.6" fill="#053247" points="209.52,144.92 216.502,157.016 202.535,157.016 "/>
<polygon opacity="0.6" fill="#053247" points="216.502,157.016 209.52,169.112 202.535,157.016 "/>
<polygon opacity="0.3" fill="#053247" points="209.52,169.112 209.52,169.118 202.535,181.208 195.553,169.112 "/>
<polygon opacity="0.6" fill="#053247" points="209.52,120.731 202.535,132.827 202.529,132.827 195.547,120.731 195.547,120.725 
	195.553,120.725 209.514,120.725 "/>
<polygon opacity="0.6" fill="#053247" points="209.52,144.92 202.535,157.016 202.529,157.016 195.547,144.92 "/>
<polygon opacity="0.6" fill="#053247" points="202.535,157.016 209.52,169.112 195.553,169.112 "/>
<polygon opacity="0.6" fill="#053247" points="202.529,108.635 209.514,120.725 195.553,120.725 "/>
<polygon opacity="0.6" fill="#053247" points="202.529,108.629 202.529,108.635 195.553,120.725 195.547,120.725 188.564,108.629 
	"/>
<polygon opacity="0.6" fill="#053247" points="195.547,144.92 202.529,157.016 188.57,157.016 "/>
<polygon opacity="0.3" fill="#053247" points="188.57,157.016 195.553,169.112 181.582,169.112 188.564,157.016 "/>
<polygon opacity="0.3" fill="#053247" points="195.553,169.112 188.57,181.211 188.564,181.211 181.582,169.112 "/>
<polygon opacity="0.6" fill="#053247" points="174.733,108.713 181.718,120.809 167.751,120.809 "/>
<polygon opacity="0.6" fill="#053247" points="174.737,108.71 174.737,108.716 167.755,120.812 160.772,108.716 160.772,108.71 "/>
<polygon opacity="0.7" fill="#053247" points="167.618,120.815 174.595,132.905 160.636,132.905 "/>
<polygon opacity="0.7" fill="#053247" points="160.633,60.25 153.65,72.338 153.645,72.338 146.662,60.244 160.627,60.244 "/>
<polygon opacity="0.7" fill="#053247" points="181.578,120.818 174.594,132.908 174.588,132.908 167.611,120.818 167.611,120.812 
	181.572,120.812 "/>
<polygon opacity="0.7" fill="#053247" points="160.633,60.25 153.65,72.338 153.645,72.338 146.662,60.244 160.627,60.244 "/>
<polygon opacity="0.7" fill="#053247" points="153.645,169.112 146.662,181.211 139.68,169.118 139.68,169.112 "/>
<polygon opacity="0.7" fill="#053247" points="139.68,48.148 146.662,60.244 132.697,60.244 "/>
<polygon opacity="0.7" fill="#053247" points="146.662,60.244 139.68,72.338 132.697,60.244 "/>
<polygon opacity="0.7" fill="#053247" points="139.68,169.118 146.662,181.211 132.697,181.211 "/>
<polygon opacity="0.7" fill="#053247" points="146.662,181.211 139.68,193.308 132.697,181.211 "/>
<polygon opacity="0.7" fill="#053247" points="132.697,60.244 139.68,72.338 125.713,72.338 "/>
<polygon opacity="0.7" fill="#053247" points="139.68,72.338 132.697,84.434 125.713,72.344 125.713,72.338 "/>
<polygon opacity="0.7" fill="#053247" points="139.68,169.118 132.697,181.211 125.707,169.112 139.674,169.112 "/>
<polygon opacity="0.7" fill="#053247" points="132.689,157.016 139.674,169.112 125.707,169.112 "/>
<polygon opacity="0.7" fill="#053247" points="125.713,48.148 132.697,60.244 118.73,60.244 "/>
<polygon opacity="0.7" fill="#053247" points="132.697,60.244 125.713,72.338 125.707,72.338 118.73,60.244 "/>
<polygon opacity="0.7" fill="#053247" points="272.83,157.019 279.812,169.115 265.842,169.115 272.824,157.019 "/>
<polygon opacity="0.7" fill="#053247" points="272.827,157.468 272.821,157.474 258.856,157.474 265.845,145.378 "/>
<polygon opacity="0.7" fill="#053247" points="272.821,157.019 265.839,169.115 258.856,157.019 "/>
<polygon opacity="0.7" fill="#053247" points="265.845,145.373 265.845,145.378 258.856,157.474 251.872,145.378 251.872,145.373 
	251.878,145.373 265.839,145.373 "/>
<polygon opacity="0.7" fill="#053247" points="258.862,133.277 265.839,145.373 251.878,145.373 258.856,133.277 "/>
<polygon opacity="0.7" fill="#053247" points="258.633,157.019 265.615,169.115 251.648,169.115 "/>
<polygon opacity="0.5" fill="#053247" points="258.633,157.019 251.648,169.115 244.666,157.019 "/>
<polygon opacity="0.5" fill="#053247" points="251.648,144.923 258.633,157.019 244.666,157.019 "/>
<polygon opacity="0.5" fill="#053247" points="251.648,144.917 251.648,144.923 244.666,157.019 237.684,144.917 "/>
<polygon opacity="0.5" fill="#053247" points="244.666,157.019 251.648,169.115 237.684,169.115 "/>
<polygon opacity="0.5" fill="#053247" points="251.648,144.917 237.684,144.917 244.66,132.822 "/>
<polygon opacity="0.5" fill="#053247" points="237.684,144.917 244.666,157.019 230.695,157.019 237.678,144.917 "/>
<polygon opacity="0.7" fill="#053247" points="244.666,157.019 237.684,169.115 237.678,169.115 230.695,157.019 "/>
<polygon opacity="0.7" fill="#053247" points="230.695,157.019 237.678,169.115 223.713,169.115 "/>
<polygon opacity="0.7" fill="#053247" points="314.729,133.285 307.747,145.373 307.741,145.373 300.765,133.285 300.765,133.277 
	314.724,133.277 "/>
<polygon opacity="0.7" fill="#053247" points="300.765,133.285 293.782,145.373 293.776,145.373 286.794,133.277 300.759,133.277 
	"/>
<polygon opacity="0.7" fill="#053247" points="314.729,133.285 307.747,145.373 307.741,145.373 300.765,133.285 300.765,133.277 
	314.724,133.277 "/>
<polygon opacity="0.7" fill="#053247" points="300.765,133.285 293.782,145.373 293.776,145.373 286.794,133.277 300.759,133.277 
	"/>
<polygon opacity="0.7" fill="#053247" points="293.776,121.183 300.759,133.277 286.794,133.277 "/>
<polygon opacity="0.7" fill="#053247" points="293.776,120.984 286.794,133.078 279.81,120.984 "/>
<polygon opacity="0.7" fill="#053247" points="286.794,133.277 279.81,145.373 272.827,133.277 "/>
<polygon opacity="0.7" fill="#053247" points="279.357,120.682 272.375,132.776 265.393,120.682 "/>
<polygon opacity="0.7" fill="#053247" points="272.827,133.277 279.81,145.373 265.845,145.373 "/>
<polygon opacity="0.7" fill="#053247" points="279.81,145.373 272.827,157.468 265.845,145.378 265.845,145.373 "/>
<polygon opacity="0.7" fill="#053247" points="265.393,120.782 272.375,132.875 258.41,132.875 "/>
<polygon opacity="0.7" fill="#053247" points="125.707,144.92 132.689,157.016 118.725,157.016 "/>
<polygon opacity="0.7" fill="#053247" points="132.689,157.016 125.707,169.112 118.725,157.016 "/>
<polygon opacity="0.7" fill="#053247" points="118.725,132.833 125.707,144.92 111.742,144.92 "/>
<polygon opacity="0.7" fill="#053247" points="125.707,144.92 118.725,157.016 111.742,144.92 "/>
<polygon opacity="0.7" fill="#053247" points="118.725,157.016 125.707,169.112 111.742,169.112 "/>
<polygon opacity="0.7" fill="#053247" points="125.707,169.112 118.725,181.208 111.742,169.112 "/>
<polygon opacity="0.7" fill="#053247" points="69.84,72.338 69.84,72.344 62.857,84.44 55.873,72.338 69.834,72.338 "/>
<polygon opacity="0.7" fill="#053247" points="62.857,60.244 69.834,72.338 55.873,72.338 62.852,60.244 "/>
<polygon opacity="0.7" fill="#053247" points="55.873,72.338 62.857,84.44 48.885,84.44 55.867,72.338 "/>
<polygon opacity="0.3" fill="#053247" points="62.852,132.821 62.852,132.827 48.885,132.827 55.867,120.731 "/>
<polygon opacity="0.7" fill="#053247" points="62.852,60.244 55.873,72.338 55.867,72.338 48.885,60.244 "/>
<polygon opacity="0.3" fill="#053247" points="55.867,120.725 55.867,120.731 48.885,132.827 41.902,120.731 41.902,120.725 "/>
<polygon opacity="0.7" fill="#053247" points="55.867,48.148 48.885,60.244 41.902,48.148 "/>
<polygon opacity="0.7" fill="#053247" points="48.885,60.244 55.867,72.338 41.902,72.338 "/>
<polygon opacity="0.7" fill="#053247" points="55.867,72.338 48.885,84.44 41.902,72.338 "/>
<polygon opacity="0.7" fill="#053247" points="41.902,48.148 48.885,60.244 34.92,60.244 "/>
<polygon opacity="0.7" fill="#053247" points="48.885,60.244 41.902,72.338 34.92,60.244 "/>
<polygon opacity="0.7" fill="#053247" points="41.902,72.338 48.885,84.44 34.92,84.44 "/>
<polygon opacity="0.7" fill="#053247" points="48.885,84.44 41.902,96.536 34.92,84.44 "/>
<polygon opacity="0.7" fill="#053247" points="41.902,96.536 48.885,108.629 34.92,108.629 "/>
<polygon opacity="0.5" fill="#053247" points="41.902,120.725 41.902,120.731 34.92,132.827 27.938,120.725 "/>
<polygon opacity="0.7" fill="#053247" points="34.92,36.052 41.902,48.148 27.938,48.148 34.914,36.052 "/>
<polygon opacity="0.7" fill="#053247" points="41.902,48.148 34.92,60.244 27.938,48.148 "/>
<polygon opacity="0.7" fill="#053247" points="34.92,84.44 41.902,96.536 27.938,96.536 "/>
<polygon opacity="0.7" fill="#053247" points="41.902,96.536 34.92,108.629 27.938,96.536 "/>
<polygon opacity="0.7" fill="#053247" points="27.938,96.536 34.92,108.629 20.947,108.629 27.931,96.536 "/>
<polygon opacity="0.7" fill="#053247" points="34.92,108.629 27.938,120.725 20.947,108.629 "/>
<polygon opacity="0.5" fill="#053247" points="27.938,120.725 34.92,132.827 20.947,132.827 "/>
<polygon opacity="0.5" fill="#053247" points="34.92,132.827 27.938,144.92 27.931,144.92 20.947,132.827 "/>
<polygon opacity="0.7" fill="#053247" points="20.947,108.629 27.938,120.725 13.964,120.725 "/>
<polygon opacity="0.5" fill="#053247" points="27.938,120.725 20.947,132.827 13.964,120.731 13.964,120.725 "/>
<polygon opacity="0.7" fill="#053247" points="20.953,84.44 27.931,96.536 13.964,96.536 20.947,84.44 "/>
<polygon opacity="0.7" fill="#053247" points="27.931,96.536 20.947,108.629 13.964,96.536 "/>
<polygon opacity="0.5" fill="#053247" points="20.947,132.827 27.931,144.92 13.964,144.92 "/>
<polygon opacity="0.7" fill="#053247" points="20.947,84.44 13.964,96.536 6.982,84.44 "/>
<polygon opacity="0.5" fill="#053247" points="13.964,120.731 20.947,132.827 6.982,132.827 "/>
<polygon opacity="0.7" fill="#053247" points="13.964,120.725 13.964,120.731 6.982,132.827 0,120.731 0,120.725 "/>
<polygon opacity="0.5" fill="#053247" points="41.902,120.735 48.884,132.836 34.914,132.836 "/>
<polygon opacity="0.5" fill="#053247" points="34.914,132.836 41.896,144.93 27.931,144.93 "/>
<polygon opacity="0.7" fill="#053247" points="6.982,84.44 13.964,96.536 0,96.536 "/>
<polygon opacity="0.6" fill="#053247" points="195.547,120.731 202.529,132.827 188.564,132.827 "/>
<polygon opacity="0.6" fill="#053247" points="195.547,120.725 195.547,120.731 188.564,132.827 181.582,120.731 181.582,120.725 
	"/>
<polygon opacity="0.7" fill="#053247" points="188.564,108.629 195.547,120.725 181.582,120.725 "/>
<polygon opacity="0.6" fill="#053247" points="188.564,132.827 195.547,144.92 181.588,144.92 181.582,144.92 181.582,144.915 "/>
<polygon opacity="0.6" fill="#053247" points="195.547,144.92 188.57,157.016 188.564,157.016 181.588,144.92 "/>
<polygon opacity="0.6" fill="#053247" points="188.564,132.827 181.582,144.915 174.605,132.827 "/>
<polygon opacity="0.6" fill="#053247" points="237.449,144.915 237.449,144.92 223.484,144.92 230.467,132.827 230.473,132.827 "/>
<polygon opacity="0.6" fill="#053247" points="230.467,132.827 223.484,144.92 216.502,132.827 "/>
<polygon opacity="0.6" fill="#053247" points="223.484,120.725 223.484,120.731 216.502,132.827 209.52,120.731 209.52,120.725 "/>
<polygon opacity="0.6" fill="#053247" points="216.502,108.629 209.52,120.725 209.514,120.725 202.529,108.635 202.529,108.629 
	202.535,108.629 "/>
<polygon opacity="0.6" fill="#053247" points="209.52,120.731 216.502,132.827 202.535,132.827 "/>
<polygon opacity="0.4" fill="#053247" points="244.664,108.712 251.646,120.809 237.682,120.809 "/>
<polygon opacity="0.4" fill="#053247" points="230.697,108.712 237.682,120.809 223.715,120.809 "/>
<polygon opacity="0.4" fill="#053247" points="237.455,120.731 244.439,132.821 244.439,132.827 244.432,132.827 230.473,132.827 
	"/>
<polygon opacity="0.4" fill="#053247" points="237.455,120.725 237.455,120.731 230.473,132.827 230.467,132.827 223.484,120.731 
	223.484,120.725 223.49,120.725 237.449,120.725 "/>
<polygon opacity="0.4" fill="#053247" points="223.484,120.731 230.467,132.827 216.502,132.827 "/>
<polygon opacity="0.3" fill="#053247" points="265.393,120.725 265.393,120.731 258.404,132.827 251.416,120.731 251.416,120.725 
	251.422,120.725 265.387,120.725 "/>
<polygon opacity="0.3" fill="#053247" points="258.404,108.629 265.387,120.725 251.422,120.725 "/>
<polygon opacity="0.3" fill="#053247" points="251.416,120.731 258.404,132.827 244.439,132.827 244.439,132.821 "/>
<polygon opacity="0.3" fill="#053247" points="244.432,132.827 237.449,144.915 230.473,132.827 "/>
<polygon opacity="0.3" fill="#053247" points="286.342,108.629 286.342,108.635 279.359,120.725 272.375,108.629 286.336,108.629 
	"/>
<polygon opacity="0.5" fill="#053247" points="251.416,120.725 251.416,120.731 244.439,132.821 237.455,120.731 237.455,120.725 
	"/>
<polygon opacity="0.5" fill="#053247" points="279.59,96.619 286.566,108.712 272.602,108.712 279.584,96.619 "/>
<polygon opacity="0.5" fill="#053247" points="272.375,108.629 279.359,120.725 265.393,120.725 "/>
<polygon opacity="0.2" fill="#053247" points="286.572,108.712 293.549,120.809 279.59,120.809 286.566,108.712 "/>
<polygon opacity="0.2" fill="#053247" points="272.602,84.517 265.619,96.611 258.635,84.523 258.635,84.517 "/>
<polygon opacity="0.2" fill="#053247" points="258.635,84.523 265.619,96.611 265.619,96.619 265.611,96.619 251.646,96.619 "/>
</svg>
