<?xml version="1.0" encoding="utf-8"?>
<!-- Generator: Adobe Illustrator 16.0.0, SVG Export Plug-In . SVG Version: 6.00 Build 0)  -->
<!DOCTYPE svg PUBLIC "-//W3C//DTD SVG 1.1//EN" "http://www.w3.org/Graphics/SVG/1.1/DTD/svg11.dtd">
<svg version="1.1" id="Layer_1" xmlns="http://www.w3.org/2000/svg" xmlns:xlink="http://www.w3.org/1999/xlink" x="0px" y="0px"
	 width="45px" height="45px" viewBox="0 0 45 45" enable-background="new 0 0 45 45" xml:space="preserve">
<g>
	<circle fill="#DD1F26" cx="22.5" cy="22.5" r="22.5"/>
	<g>
		<path d="M12.857,13.574c-0.619,0.738-1.008,1.678-1.008,2.717c0,2.347,1.902,4.249,4.252,4.249c1.555,0,2.9-0.845,3.641-2.091
			C16.873,17.746,14.428,15.977,12.857,13.574z"/>
		<path d="M25.221,18.449c0.74,1.246,2.088,2.091,3.645,2.091c2.346,0,4.248-1.902,4.248-4.249c0-1.039-0.387-1.979-1.006-2.717
			C30.535,15.977,28.09,17.747,25.221,18.449z"/>
	</g>
	<g>
		<path d="M12.876,13.574c-0.619,0.738-1.008,1.678-1.008,2.717c0,2.347,1.902,4.249,4.252,4.249c1.555,0,2.9-0.845,3.641-2.091
			C16.892,17.746,14.446,15.977,12.876,13.574z"/>
		<path d="M25.239,18.449c0.74,1.246,2.088,2.091,3.645,2.091c2.346,0,4.248-1.902,4.248-4.249c0-1.039-0.387-1.979-1.006-2.717
			C30.554,15.977,28.108,17.747,25.239,18.449z"/>
	</g>
	<path fill="none" stroke="#000000" stroke-width="0.5" stroke-linecap="round" d="M33.495,33.813
		c-2.472-5.09-8.265-7.897-13.946-6.396c-5.682,1.497-8.286,6.915-8.025,6.704"/>
</g>
</svg>
