<?xml version="1.0" encoding="utf-8"?>
<!-- Generator: Adobe Illustrator 16.0.0, SVG Export Plug-In . SVG Version: 6.00 Build 0)  -->
<!DOCTYPE svg PUBLIC "-//W3C//DTD SVG 1.1//EN" "http://www.w3.org/Graphics/SVG/1.1/DTD/svg11.dtd">
<svg version="1.1" id="Layer_1" xmlns="http://www.w3.org/2000/svg" xmlns:xlink="http://www.w3.org/1999/xlink" x="0px" y="0px"
	 width="108.849px" height="108.855px" viewBox="0 0 108.849 108.855" enable-background="new 0 0 108.849 108.855"
	 xml:space="preserve">
<g>
	<linearGradient id="SVGID_1_" gradientUnits="userSpaceOnUse" x1="22.2036" y1="13.7271" x2="86.368" y2="94.7768">
		<stop  offset="0" style="stop-color:#FFFFFF"/>
		<stop  offset="1" style="stop-color:#FFFFFF;stop-opacity:0"/>
	</linearGradient>
	<path fill="url(#SVGID_1_)" d="M54.421,108.855C24.417,108.855,0,84.438,0,54.428C0,24.416,24.417,0,54.421,0
		c30.014,0,54.428,24.416,54.428,54.428C108.849,84.438,84.435,108.855,54.421,108.855L54.421,108.855z M54.421,14.559
		c-21.979,0-39.862,17.885-39.862,39.869s17.883,39.867,39.862,39.867c21.985,0,39.868-17.883,39.868-39.867
		S76.406,14.559,54.421,14.559L54.421,14.559z"/>
	<g>
		<defs>
			<path id="SVGID_2_" d="M94.57,53.889c0,22-17.838,39.84-39.84,39.84c-22,0-39.836-17.84-39.836-39.84
				c0-22.002,17.836-39.84,39.836-39.84C76.732,14.049,94.57,31.887,94.57,53.889z"/>
		</defs>
		<clipPath id="SVGID_3_">
			<use xlink:href="#SVGID_2_"  overflow="visible"/>
		</clipPath>
		<g opacity="0.79" clip-path="url(#SVGID_3_)">
			<g id="XMLID_1_">
				<g>
					<polygon fill="#8EC044" points="94.222,37.521 94.222,70.24 54.73,53.889 54.73,53.871 					"/>
					<polygon fill="#009345" points="94.222,70.24 71.097,93.383 54.73,53.889 					"/>
					<polygon fill="#D5DA2E" points="94.222,37.521 54.73,53.871 71.097,14.395 					"/>
					<polygon fill="#FECF23" points="71.097,14.395 54.73,53.871 38.365,14.395 					"/>
					<polygon fill="#1E76BC" points="54.73,53.889 71.097,93.383 38.365,93.383 					"/>
					<polygon fill="#DC2127" points="54.73,53.889 38.365,93.383 15.24,70.24 					"/>
					<polygon fill="#F59E27" points="54.73,53.871 54.73,53.889 13.852,70.393 13.698,37.215 					"/>
					<polygon fill="#FAB625" points="54.73,53.871 15.087,37.521 38.365,14.395 					"/>
				</g>
			</g>
		</g>
	</g>
</g>
</svg>
