<?xml version="1.0" encoding="utf-8"?>
<!-- Generator: Adobe Illustrator 16.0.0, SVG Export Plug-In . SVG Version: 6.00 Build 0)  -->
<!DOCTYPE svg PUBLIC "-//W3C//DTD SVG 1.1//EN" "http://www.w3.org/Graphics/SVG/1.1/DTD/svg11.dtd">
<svg version="1.1" id="Layer_1" xmlns="http://www.w3.org/2000/svg" xmlns:xlink="http://www.w3.org/1999/xlink" x="0px" y="0px"
	 width="43.74px" height="45px" viewBox="0 0 43.74 45" enable-background="new 0 0 43.74 45" xml:space="preserve">
<ellipse fill="#DF6B28" cx="21.869" cy="22.5" rx="21.871" ry="22.5"/>
<path fill="none" stroke="#000000" stroke-width="0.5" stroke-linecap="round" d="M31.997,33.363c0.25,0-4.502-4.73-10.375-4.5
	c-6.375,0.25-10.135,4.711-9.875,4.5"/>
<g>
	<path d="M11.922,13.503c-0.429,0.664-0.684,1.45-0.684,2.299c0,2.347,1.902,4.249,4.251,4.249c2.347,0,4.249-1.902,4.249-4.249
		c0-0.121-0.025-0.235-0.036-0.354C16.856,15.251,14.251,14.516,11.922,13.503z"/>
	<path d="M24.051,15.317c-0.019,0.161-0.049,0.318-0.049,0.484c0,2.347,1.902,4.249,4.251,4.249c2.347,0,4.249-1.902,4.249-4.249
		c0-1.021-0.374-1.944-0.974-2.678C28.917,14.327,26.419,15.018,24.051,15.317z"/>
</g>
</svg>
