<?xml version="1.0" encoding="utf-8"?>
<!-- Generator: Adobe Illustrator 16.0.0, SVG Export Plug-In . SVG Version: 6.00 Build 0)  -->
<!DOCTYPE svg PUBLIC "-//W3C//DTD SVG 1.1//EN" "http://www.w3.org/Graphics/SVG/1.1/DTD/svg11.dtd">
<svg version="1.1" id="Layer_1" xmlns="http://www.w3.org/2000/svg" xmlns:xlink="http://www.w3.org/1999/xlink" x="0px" y="0px"
	 width="45px" height="45px" viewBox="0 0 45 45" enable-background="new 0 0 45 45" xml:space="preserve">
<circle fill="#1C75BC" cx="22.502" cy="22.5" r="22.5"/>
<path fill="none" stroke="#000000" stroke-width="1.5" d="M17.572,15.041"/>
<path fill="none" stroke="#000000" stroke-width="1.5" d="M19.072,15.041"/>
<path d="M22.697,27.457c-5.569,0-10.641-2.13-14.446-5.619c-0.022,0.328-0.05,0.653-0.05,0.985c0,7.938,6.437,14.375,14.377,14.375
	c7.938,0,14.373-6.437,14.373-14.375c0-0.264-0.025-0.521-0.039-0.781C33.134,25.408,28.156,27.457,22.697,27.457z"/>
<g>
	<path fill="none" stroke="#000000" stroke-width="0.5" stroke-linecap="round" d="M11.883,13.62
		c0.869,1.79,2.906,2.777,4.904,2.249c1.998-0.526,2.914-2.432,2.822-2.357"/>
	<path fill="none" stroke="#000000" stroke-width="0.5" stroke-linecap="round" d="M25.383,13.62
		c0.869,1.79,2.906,2.777,4.904,2.249c1.998-0.526,2.914-2.432,2.822-2.357"/>
</g>
</svg>
